<?xml version="1.0"?>
<svg xmlns="http://www.w3.org/2000/svg" viewBox="0 0 64 64" width="512" height="512"><path d="m8 12h4c11.24072 0 20.392-2.61023 23-10 2.73352 7.25977 12.88953 10 24 10h3v37.62621a10.37378 10.37378 0 0 1 -10.37379 10.37379h-33.25242a10.37378 10.37378 0 0 1 -10.37379-10.37379z" fill="#50c9d6"/><path d="m12 12h-4v37.62622a10.37382 10.37382 0 0 0 10.37378 10.37378h16.62622v-58c-2.608 7.38977-11.75928 10-23 10z" fill="#4c9ecc"/><path d="m38.98489 34 13.29189-.00007a3.64179 3.64179 0 0 1 3.6927 3.16883 3.50111 3.50111 0 0 1 -3.00656 3.79883.03274.03274 0 0 0 -.00085.06464 3.50058 3.50058 0 0 1 -.45411 6.96832 3.5 3.5 0 0 1 .45411 6.96716.03274.03274 0 0 0 .00085.06464 3.51276 3.51276 0 0 1 3.02173 3.80117 3.642 3.642 0 0 1 -3.69251 3.16648h-50.30725v-28h27l3.86131-10.81166a4.22053 4.22053 0 0 1 4.49814-2.76842 4.22053 4.22053 0 0 1 3.589 5.137z" fill="#bcb9b1"/><path d="m39.93329 25.55688-1.94843 8.44312h1l1.94843-8.44312a4.17374 4.17374 0 0 0 -4.56622-5.13159 4.219 4.219 0 0 1 3.56622 5.13159z" fill="#dbd8d1"/><path d="m55.98486 51.5a3.49924 3.49924 0 0 0 -3.47693-3.49945 3.50058 3.50058 0 0 0 .45411-6.96832.03274.03274 0 0 1 .00085-.06464 3.5011 3.5011 0 0 0 3.00659-3.79883 3.64183 3.64183 0 0 0 -3.69269-3.16888h-.99987a3.6418 3.6418 0 0 1 3.69256 3.16888 3.5011 3.5011 0 0 1 -3.00659 3.79883.03274.03274 0 0 0 -.00085.06464 3.50058 3.50058 0 0 1 -.45411 6.96832 3.5 3.5 0 0 1 .45411 6.96716.03274.03274 0 0 0 .00085.06464 3.51268 3.51268 0 0 1 3.02173 3.80115 3.642 3.642 0 0 1 -3.69251 3.1665h1a3.642 3.642 0 0 0 3.69251-3.1665 3.51268 3.51268 0 0 0 -3.02173-3.80115.03274.03274 0 0 1 -.00085-.06464 3.50068 3.50068 0 0 0 3.02282-3.46771z" fill="#dbd8d1"/><path d="m1.99244 34h12.99636v28h-12.99636z" fill="#1550af"/><ellipse cx="8.99048" cy="55.77581" fill="#d3d3d3" rx="1.99944" ry="2.07473"/><path d="m13 26h-2v-10a.99974.99974 0 0 1 1-1h7.18994a20.61066 20.61066 0 0 0 13.16992-4.76855l1.28028 1.5371a22.61917 22.61917 0 0 1 -14.4502 5.23145h-6.18994z" fill="#ed4720"/><path d="m59 26h-2v-9h-6.18994a22.61917 22.61917 0 0 1 -14.4502-5.23145l1.28028-1.5371a20.61066 20.61066 0 0 0 13.16992 4.76855h7.18994a.99974.99974 0 0 1 1 1z" fill="#ea5c3f"/></svg>
